<?xml version="1.0" encoding="utf-8"?><!DOCTYPE svg PUBLIC "-//W3C//DTD SVG 1.1//EN" "http://www.w3.org/Graphics/SVG/1.1/DTD/svg11.dtd"><svg viewBox="0 0 2000 2000" xmlns="http://www.w3.org/2000/svg" xmlns:xlink="http://www.w3.org/1999/xlink"><style>:root>svg{display:none}:root>svg:target{display:block}</style><svg viewBox="0 0 512 512" id="004-dinosaur" xmlns="http://www.w3.org/2000/svg"><path d="M229.084 481.147a23.253 23.253 0 015.248-14.746v-50.467c-17.247-3.894-33.101-11.455-46.706-21.819v63.678h-15.629c-12.897 0-23.353 10.456-23.353 23.353S159.1 504.5 171.997 504.5h38.982c9.019 0 16.839-5.117 20.729-12.602a23.242 23.242 0 01-2.624-10.751z" fill="#17d9c3"/><path d="M268.066 418.728v39.066h-15.629c-12.897 0-23.353 10.456-23.353 23.353S239.54 504.5 252.437 504.5h38.982c12.897 0 23.353-10.456 23.353-23.353v-74.633a120.88 120.88 0 01-46.706 12.214zM139.65 240.966H96.731c-14.586 0-26.411 11.825-26.411 26.411 0 14.586 11.825 26.411 26.411 26.411h42.919zM417.291 431.404c-51.914-38.222-38.577-102.755-38.575-102.765-9.094 34.241-32.752 62.543-63.944 77.875 38.183 38.183 71.348 47.839 94.693 48.125 12.534.154 17.921-15.803 7.826-23.235z" fill="#17d9c3"/><path d="M261.219 55.434c-67.141 0-121.569 54.428-121.569 121.569v120.352c0 67.141 54.428 121.569 121.569 121.569s121.569-54.428 121.569-121.569V177.003c-.001-67.141-54.429-121.569-121.569-121.569z" fill="#88f8d8"/><path d="M317.401 301.288h-51.913c-18.698 0-33.91-15.212-33.91-33.911 0-18.698 15.212-33.911 33.91-33.911h51.913c4.143 0 7.5 3.358 7.5 7.5s-3.357 7.5-7.5 7.5h-51.913c-10.427 0-18.91 8.483-18.91 18.911s8.483 18.911 18.91 18.911h51.913c4.143 0 7.5 3.358 7.5 7.5s-3.357 7.5-7.5 7.5z" fill="#007ea8"/><circle cx="288.511" cy="128.416" fill="#007ea8" r="10.648"/><circle cx="188.141" cy="128.416" fill="#007ea8" r="10.648"/><path d="M187.626 394.115v35.678a150.446 150.446 0 0046.706 16.721v-30.58c-17.247-3.894-33.101-11.455-46.706-21.819zM268.066 418.728v30.014a150.564 150.564 0 0046.706-9.62v-32.608a120.88 120.88 0 01-46.706 12.214z" fill="#007ea8"/><g fill="#ffff6f"><path d="M261.218 55.434c11.798 0 23.201 1.687 33.988 4.822L261.219 7.5l-33.987 52.756a121.588 121.588 0 0133.986-4.822zM361.447 108.198l.718.482 1.317-70.043-58.103 25.072c22.863 8.918 42.359 24.558 56.068 44.489z"/><path d="M382.768 175.433l52.341-45.843-72.944-20.91.315 1.043c12.556 18.861 19.98 41.427 20.288 65.71zM382.787 177.003v75.881l58.893-37.94zM382.787 252.884v44.47c0 10.817-1.42 21.302-4.072 31.284l60.828-34.687z"/></g><path d="M449.18 214.944a7.501 7.501 0 00-3.438-6.305l-51.57-33.223 45.879-40.183a7.5 7.5 0 00-2.875-12.851l-67.402-19.322 1.209-64.281a7.5 7.5 0 00-10.47-7.028l-58.104 25.072c-.152.065-.289.153-.435.228a7.364 7.364 0 00-.462-.855L267.523 3.438a7.497 7.497 0 00-12.609 0l-33.987 52.756a7.502 7.502 0 008.398 11.264 114.218 114.218 0 0131.894-4.524c26.07 0 31.528 6.994 37.397 3.998a7.491 7.491 0 004.037 3.764c42.35 16.52 72.014 57.352 72.615 104.833.003.262.036.519.066.775-.069.732-.047 120.948-.047 121.05 0 9.938-1.285 19.815-3.82 29.359a7.5 7.5 0 0010.964 8.44l60.828-34.687a7.497 7.497 0 00.681-12.591l-47.863-34.632 49.664-31.995a7.497 7.497 0 003.439-6.304zM261.219 47.934c-6.017 0-12.005.415-17.927 1.24l17.927-27.826 17.927 27.826a129.915 129.915 0 00-17.927-1.24zm62.421 16.063l32.125-13.862-.719 38.223a128.447 128.447 0 00-31.406-24.361zm96.181 69.013l-30.674 26.865a128.323 128.323 0 00-11.685-39.008zm-30.606 181.008a129.927 129.927 0 001.072-16.663v-29.786l35.429 25.635zm1.072-74.887v-48.375l37.544 24.188z" fill="#f90"/><path d="M421.737 425.364c-19.736-14.531-31.752-34.823-35.713-60.31-3.02-19.43.008-34.759.038-34.907l.002-.014a128.84 128.84 0 004.222-32.779V177.003c0-71.169-57.899-129.069-129.068-129.069s-129.069 57.9-129.069 129.069v56.463H96.73c-18.698 0-33.91 15.212-33.91 33.911s15.212 33.911 33.91 33.911h35.484c1.17 38.88 19.618 73.487 47.911 96.399v52.607h-8.129c-17.013 0-30.854 13.841-30.854 30.853S154.984 512 171.997 512h38.981c7.827 0 15.16-2.933 20.74-8.011 5.48 4.975 12.752 8.011 20.719 8.011h38.981c17.013 0 30.854-13.841 30.854-30.853v-57.416c22.319 19.292 52.732 37.985 87.101 38.408l.271.001c8.925 0 16.497-5.437 19.339-13.912 2.863-8.541.019-17.516-7.246-22.864zM77.82 267.377c0-10.427 8.483-18.911 18.91-18.911h35.419v37.822H96.73c-10.426 0-18.91-8.483-18.91-18.911zm69.329 29.977V183.843l17.311-12.458 20.43 14.703a7.498 7.498 0 008.762 0l20.429-14.703 20.43 14.703a7.498 7.498 0 008.762 0l20.43-14.703 20.43 14.703c3.375 2.43 8.06 1.641 10.468-1.707a7.499 7.499 0 00-1.706-10.468l-24.811-17.856a7.498 7.498 0 00-8.762 0l-20.43 14.703-20.43-14.703a7.498 7.498 0 00-8.762 0l-20.429 14.703-20.43-14.703a7.498 7.498 0 00-8.762 0l-12.287 8.843c6.063-57.229 54.616-101.967 113.427-101.967 62.897 0 114.068 51.171 114.068 114.069v120.352c0 62.839-51.109 114.069-114.068 114.069-62.899 0-114.07-51.171-114.07-114.069zm113.416 129.061v23.879h-8.128c-3.724 0-7.297.664-10.605 1.878v-27.205a129.434 129.434 0 0018.733 1.448zM210.979 497h-38.981c-8.741 0-15.854-7.112-15.854-15.853s7.112-15.853 15.854-15.853h15.629a7.5 7.5 0 007.5-7.5v-49.551a127.194 127.194 0 0031.706 13.544v42.151a31.045 31.045 0 00-5.248 17.208c0 3.219.53 6.692 1.677 10.023A15.804 15.804 0 01210.979 497zm96.293-15.853c0 8.741-7.112 15.853-15.854 15.853h-38.981c-8.785 0-15.854-7.207-15.854-15.853 0-8.874 7.235-15.853 15.854-15.853h15.628a7.5 7.5 0 007.5-7.5V425.63c10.541-1.159 21.472-3.752 31.707-7.67zM414.76 443.46c-.293.875-1.518 3.727-5.203 3.679-32.409-.398-61.565-20.036-82.186-38.94a129.221 129.221 0 0043.477-42.672c3.142 22.63 13.369 50.839 41.997 71.916 2.846 2.097 2.288 4.907 1.915 6.017z" fill="#007ea8"/></svg><svg viewBox="0 0 512 512" id="009-flamingo" xmlns="http://www.w3.org/2000/svg"><path d="M236.198 457.813h15.622v-63.578c14.504 8.038 30.237 13.775 46.687 16.655v55.526a23.241 23.241 0 00-5.245 14.74c0 3.877.951 7.529 2.623 10.747-3.889 7.483-11.705 12.597-20.721 12.597h-38.966c-12.892 0-23.344-10.452-23.344-23.344.001-12.892 10.452-23.343 23.344-23.343z" fill="#f90"/><path d="M316.606 457.813h15.622v-45.132a139.55 139.55 0 0012.788-1.473c11.332-1.84 22.759-4.914 33.9-9.084v79.032c0 12.892-10.451 23.344-23.344 23.344h-38.966c-12.892 0-23.344-10.452-23.344-23.344.001-12.892 10.452-23.343 23.344-23.343z" fill="#f90"/><path d="M349.821 440.808a170.11 170.11 0 01-17.593 1.915V412.68a139.55 139.55 0 0012.788-1.473c11.332-1.84 22.759-4.914 33.9-9.084v31.7c-9.592 3.048-19.343 5.402-29.095 6.985zM298.508 410.89v30.377c-16.039-2.288-31.719-6.83-46.687-13.484v-33.549c14.504 8.038 30.237 13.775 46.687 16.656z" fill="#f95116"/><path d="M306.718 256.421c-44.809 1.607-72.155 36.309-72.155 36.309l-.003.001c-8.515-24.134-8.676-57.939-7.292-75.587a106.849 106.849 0 01-28.593 3.879 106.759 106.759 0 01-29.988-4.279v1.964c-.944 6.543-2.824 22.891-1.629 43.076 5.229 88.352 88.326 163.975 177.957 149.424 32.532-5.282 65.849-20.705 90.917-43.178h-93.335c-34.009 0-61.578-27.569-61.578-61.578 0-20.617 10.143-38.854 25.699-50.031z" fill="#ff9bff"/><path d="M198.675 251.011a136.852 136.852 0 01-31.997-3.798c.082-13.301 1.305-23.628 2.009-28.505v-1.964a106.759 106.759 0 0029.988 4.279c9.905 0 19.492-1.355 28.593-3.879-.617 7.862-.924 18.931-.326 30.921a136.727 136.727 0 01-28.267 2.946z" fill="#e207b9"/><path d="M93.948 93.435v.01c4.642-1.033 7.857-1.32 11.335-1.32h46.621c31.036 0 53.158 25.382 53.158 53.159 0 24.47-20.872 43.752-45.282 41.813l-42.153-3.348c19.572 22.811 48.62 37.275 81.047 37.275 58.956 0 106.757-47.801 106.757-106.767C305.432 55.301 257.632 7.5 198.676 7.5c-51.839 0-95.032 36.935-104.728 85.935z" fill="#ffceff"/><path d="M80.384 180.78l37.245 2.969 42.153 3.348c24.41 1.939 45.282-17.343 45.282-41.813-27.289 0-50.04 3.459-68.872 8.726-21.912 5.998-40.834 15.494-55.808 26.77z" fill="#ffff6f"/><path d="M56.683 132.849c40.563-13.635 67.792 8.336 79.508 21.161 18.832-5.268 41.583-8.726 68.872-8.726 0-28.312-22.656-53.159-53.158-53.159h-46.621c-3.343 0-6.712.291-11.335 1.32v-.01c-19.043 4.478-33.837 19.992-37.266 39.414z" fill="#ffff6f"/><circle cx="134.451" cy="78.133" fill="#e207b9" r="12.294"/><circle cx="222.473" cy="78.133" fill="#e207b9" r="12.294"/><path d="M342.598 244.873c62.684 0 113.499 50.815 113.499 113.498a9.658 9.658 0 01-9.658 9.658h-103.84c-34.009 0-61.578-27.569-61.578-61.578-.002-34.008 27.568-61.578 61.577-61.578z" fill="#ffceff"/><path d="M55.904 141.495v26.999c0 12.605 14.434 19.902 24.48 12.285 14.974-11.275 33.896-20.772 55.807-26.769-11.715-12.825-38.944-34.796-79.508-21.161-.574 3.302-.779 6.141-.779 8.646z" fill="#f90"/><path d="M383.189 395.961a7.496 7.496 0 00-6.902-.861c-10.747 4.022-21.673 6.951-32.474 8.705a132.666 132.666 0 01-12.1 1.394 7.5 7.5 0 00-6.985 7.482v37.632h-8.122c-3.722 0-7.292.663-10.599 1.876V410.89a7.501 7.501 0 00-6.206-7.388c-15.313-2.681-30.232-8.006-44.346-15.828a7.498 7.498 0 00-11.135 6.56v56.078h-8.122c-17.007 0-30.844 13.836-30.844 30.844S219.191 512 236.198 512h38.966a30.734 30.734 0 0020.732-8.008c5.478 4.973 12.747 8.008 20.711 8.008h38.966c17.007 0 30.844-13.836 30.844-30.844v-79.032a7.5 7.5 0 00-3.228-6.163zM275.164 497h-38.966c-8.736 0-15.844-7.107-15.844-15.844s7.107-15.844 15.844-15.844h15.622a7.5 7.5 0 007.5-7.5v-51.387c10.268 4.708 20.871 8.266 31.688 10.63v46.898a30.953 30.953 0 00-5.245 17.202c0 3.389.582 6.836 1.675 10.018A15.786 15.786 0 01275.164 497zm96.252-15.844c0 8.736-7.107 15.844-15.844 15.844h-38.966c-8.865 0-15.844-7.294-15.844-15.844 0-8.622 7.004-15.844 15.844-15.844h15.622a7.5 7.5 0 007.5-7.5v-38.297c2.177-.254 4.345-.556 6.489-.904 8.382-1.361 16.82-3.366 25.198-5.985z" fill="#f95116"/><path d="M342.598 237.373a68.676 68.676 0 00-38.367 11.667c-31.136 1.825-53.976 18.1-65.989 29.071-4.167-18.998-4.522-41.165-3.816-55.324 45.544-15.043 78.505-58.007 78.505-108.531C312.932 51.255 261.677 0 198.676 0c-54.4 0-101.538 38.683-112.085 91.979a7.498 7.498 0 008.985 8.788c4.257-.947 6.959-1.141 9.707-1.141h46.621c12.591 0 24.241 4.92 32.803 13.853 8.17 8.523 12.855 20.116 12.855 31.806 0 9.718-3.933 18.702-11.073 25.298-7.144 6.599-16.417 9.808-26.114 9.038l-42.152-3.348a7.51 7.51 0 00-7.279 4.077 7.502 7.502 0 00.993 8.284 114.268 114.268 0 0048.757 33.39c-.965 8.226-2.146 22.902-1.123 40.205 1.405 23.737 8.033 46.771 19.701 68.46 11.138 20.703 26.717 39.41 45.055 54.099 36.126 28.939 79.46 40.715 121.891 33.825 33.59-5.453 67.145-21.102 92.542-43.081h7.678c9.461 0 17.158-7.697 17.158-17.158.001-66.721-54.28-121.001-120.998-121.001zm-204.491-44.474l21.318-1.525c13.7 1.089 24.881-2.307 34.986-11.642 10.102-9.331 13.745-20.363 13.745-34.112 0-33.447-23.405-58.841-56.853-58.841l-46.02-2.154c-.464 0-.921.005-1.373.015C116.681 43.721 154.981 15 198.676 15c54.729 0 99.256 44.526 99.256 99.256 0 61.159-55.809 110.044-119.646 97.154a99.132 99.132 0 01-40.179-18.511zm205.706 210.906c-38.467 6.242-77.575-4.666-110.109-30.727-34.54-27.668-56.655-69.439-59.158-111.738-.869-14.679-.047-27.291.783-35.214 14.353 2.984 29.479 3.17 43.911.544-.68 20.925 1.099 48.293 8.248 68.556 1.962 5.565 9.293 6.767 12.956 2.159.206-.259 17.076-21.098 45.07-29.784a69.007 69.007 0 00-11.995 38.851c0 38.09 30.988 69.078 69.078 69.078h71.584c-20.861 14.22-45.598 24.254-70.368 28.275zm102.625-43.275H342.597c-51.636 0-74.269-66.524-32.004-97.635 8.968-6.607 20.036-10.522 32.004-10.522 58.448 0 105.999 47.551 105.999 105.999a2.16 2.16 0 01-2.158 2.158z" fill="#e207b9"/><path d="M151.904 84.625h-46.621c-4.244 0-8.026.424-12.574 1.413a8.249 8.249 0 00-.478.096 56.74 56.74 0 00-42.934 45.411 7.499 7.499 0 009.775 8.413c28.368-9.536 49.449.146 62.635 10.716-16.941 5.93-32.601 14.147-45.836 24.114a7.5 7.5 0 003.916 13.467l79.399 6.318c13.683 1.087 27.354-3.619 37.479-12.973 10.102-9.331 15.896-22.567 15.896-36.316.002-33.447-27.209-60.659-60.657-60.659zm34.585 85.957c-7.144 6.599-16.417 9.808-26.114 9.038l-57.107-4.54c28.125-15.085 61.087-21.267 93.235-22.173l.228-.005c-1.505 6.74-5.013 12.85-10.242 17.68zm10.001-32.678c-19.641.527-39.236 2.921-57.969 7.716-10.044-9.904-29.531-24.55-56.917-24.55a80.18 80.18 0 00-13.515 1.165 41.762 41.762 0 0127.236-21.418c.084-.016.168-.033.251-.051 3.643-.81 6.455-1.141 9.707-1.141h46.621c22.657 0 41.514 16.59 45.06 38.261-.159.004-.315.014-.474.018z" fill="#f90"/><path d="M61.113 188.974c-7.84-3.894-12.71-11.741-12.71-20.479v-26.999c0-3.24.292-6.489.892-9.934a7.5 7.5 0 014.999-5.822c45.734-15.373 76.381 11.112 87.435 23.212a7.5 7.5 0 01-3.557 12.293c-19.917 5.452-38.339 14.278-53.276 25.526-6.901 5.231-16.024 6.057-23.783 2.203zm2.291-20.48c0 3.048 1.639 5.682 4.383 7.045 1.289.641 4.654 1.851 8.066-.736 13.252-9.979 28.913-18.204 45.855-24.134-12.487-10.008-32.062-19.22-58.197-12.065z" fill="#f95116"/></svg><svg viewBox="0 0 64 64" id="camping" xmlns="http://www.w3.org/2000/svg"><path d="M4.026 7.017c-.553 0-1.005-.447-1.005-1s.442-1 .994-1h.011a1 1 0 110 2zM7.026 7.017c-.553 0-1.005-.447-1.005-1s.442-1 .994-1h.011a1 1 0 110 2zM10.026 7.017c-.553 0-1.005-.447-1.005-1s.442-1 .994-1h.011a1 1 0 110 2z"/><path d="M63.004 60.983h-62a1 1 0 01-1-1V8.017a1 1 0 011-1h62a1 1 0 011 1v51.967a.999.999 0 01-1 .999zm-61-2h60V9.017h-60v49.966z"/><path d="M.996 7.017a1 1 0 01-1-1c0-1.654 1.346-3 3-3a1 1 0 110 2c-.552 0-1 .448-1 1s-.447 1-1 1z"/><path d="M.996 9.017a1 1 0 01-1-1v-2a1 1 0 112 0v2a1 1 0 01-1 1zM62.996 7.017a1 1 0 01-1-1 1 1 0 00-1-1 1 1 0 110-2c1.654 0 3 1.346 3 3a1 1 0 01-1 1z"/><path d="M62.996 9.017a1 1 0 01-1-1v-2a1 1 0 112 0v2a1 1 0 01-1 1zM60.996 5.017h-58a1 1 0 110-2h58a1 1 0 110 2zM19.016 54.001H6.021a1 1 0 110-2h12.994a1 1 0 11.001 2zM58.014 54.001H45.02a1 1 0 110-2h12.994a1 1 0 110 2zM38.502 54.001H25.508a1 1 0 110-2h12.994a1 1 0 110 2zM35.52 57.001h-7.031a1 1 0 110-2h7.031a1 1 0 110 2zM55.02 57.001h-7.006a1 1 0 110-2h7.006a1 1 0 110 2zM16.02 57.001H9.021a1 1 0 110-2h6.998a1 1 0 11.001 2zM59.02 40.995h-54a1 1 0 01-1-1V12.032a1 1 0 011-1h54a1 1 0 011 1v27.963a1 1 0 01-1 1zm-53-2h52V13.032h-52z"/><path d="M54.008 23.022H33.009a1 1 0 110-2h20.999a1 1 0 110 2zM54.008 20.021H33.009a1 1 0 110-2h20.999a1 1 0 110 2zM54.008 26.03H33.009a1 1 0 110-2h20.999a1 1 0 110 2z"/><g><path d="M42.006 29.038h-8.997a1 1 0 110-2h8.997a1 1 0 110 2z"/></g><g><path d="M38.002 34.03h-4.991a1 1 0 110-2h4.991a1 1 0 110 2z"/></g><g><path d="M41.996 33.03h-1.004a1 1 0 110-2h1.004a1 1 0 110 2z"/></g><g><path d="M41.997 35.03c-.366 0-.719-.202-.895-.552l-1.004-2a1 1 0 111.787-.897l1.004 2a1 1 0 01-.892 1.449z"/></g><g><path d="M41.996 35.03h-1a1 1 0 110-2h1a1 1 0 110 2z"/></g><g><path d="M12.519 50.003c-1.93 0-3.5-1.57-3.5-3.5s1.57-3.5 3.5-3.5 3.5 1.57 3.5 3.5-1.571 3.5-3.5 3.5zm0-5c-.827 0-1.5.673-1.5 1.5s.673 1.5 1.5 1.5 1.5-.673 1.5-1.5-.673-1.5-1.5-1.5z"/></g><g><path d="M32.02 50.003c-1.93 0-3.5-1.57-3.5-3.5s1.57-3.5 3.5-3.5 3.5 1.57 3.5 3.5-1.571 3.5-3.5 3.5zm0-5c-.827 0-1.5.673-1.5 1.5s.673 1.5 1.5 1.5 1.5-.673 1.5-1.5-.673-1.5-1.5-1.5z"/></g><g><path d="M51.521 50.003c-1.93 0-3.5-1.57-3.5-3.5s1.57-3.5 3.5-3.5 3.5 1.57 3.5 3.5-1.571 3.5-3.5 3.5zm0-5c-.827 0-1.5.673-1.5 1.5s.673 1.5 1.5 1.5 1.5-.673 1.5-1.5-.673-1.5-1.5-1.5z"/></g><g><path d="M28.999 34.001H8.996a1 1 0 110-2h20.003a1 1 0 110 2z"/><path d="M10.996 34.001a1.001 1.001 0 01-.882-1.471l8.001-15.007a1.001 1.001 0 011.766.942L11.88 33.472a1.002 1.002 0 01-.884.529z"/><path d="M27.001 34.001c-.357 0-.703-.192-.884-.529l-8.002-15.007a1.002 1.002 0 011.766-.942l8.002 15.007a1.002 1.002 0 01-.882 1.471z"/><path d="M18.998 34.001a1 1 0 01-1-1V17.994a1 1 0 112 0v15.007a1 1 0 01-1 1zM28.999 34.001a1 1 0 01-1-1v-1.002a1 1 0 112 0v1.002a1 1 0 01-1 1zM8.996 34.001a1 1 0 01-1-1v-1.002a1 1 0 112 0v1.002a1 1 0 01-1 1z"/></g></svg><svg viewBox="0 0 451.847 451.847" id="down" xmlns="http://www.w3.org/2000/svg"><path d="M225.923 354.706c-8.098 0-16.195-3.092-22.369-9.263L9.27 151.157c-12.359-12.359-12.359-32.397 0-44.751 12.354-12.354 32.388-12.354 44.748 0l171.905 171.915 171.906-171.909c12.359-12.354 32.391-12.354 44.744 0 12.365 12.354 12.365 32.392 0 44.751L248.292 345.449c-6.177 6.172-14.274 9.257-22.369 9.257z"/></svg><svg fill="#FFF" viewBox="0 0 512 512" id="facebook" xmlns="http://www.w3.org/2000/svg"><path d="M512 256C512 114.6 397.4 0 256 0S0 114.6 0 256s114.6 256 256 256c1.5 0 3 0 4.5-.1V312.7h-55v-64.1h55v-47.2c0-54.7 33.4-84.5 82.2-84.5 23.4 0 43.5 1.7 49.3 2.5v57.2h-33.6c-26.5 0-31.7 12.6-31.7 31.1v40.8h63.5l-8.3 64.1h-55.2v189.5C433.7 471.4 512 372.9 512 256z"/></svg><svg viewBox="0 0 512 512" fill="#FFF" id="instagram" xmlns="http://www.w3.org/2000/svg"><path d="M305 256c0 27.063-21.938 49-49 49s-49-21.938-49-49 21.938-49 49-49 49 21.938 49 49zm0 0"/><path d="M370.594 169.305a45.546 45.546 0 00-10.996-16.903 45.514 45.514 0 00-16.903-10.996c-5.18-2.011-12.96-4.406-27.293-5.058-15.504-.707-20.152-.86-59.402-.86-39.254 0-43.902.149-59.402.856-14.332.656-22.118 3.05-27.293 5.062a45.483 45.483 0 00-16.903 10.996 45.572 45.572 0 00-11 16.903c-2.011 5.18-4.406 12.965-5.058 27.297-.707 15.5-.86 20.148-.86 59.402 0 39.25.153 43.898.86 59.402.652 14.332 3.047 22.114 5.058 27.293a45.563 45.563 0 0010.996 16.903 45.514 45.514 0 0016.903 10.996c5.18 2.015 12.965 4.41 27.297 5.062 15.5.707 20.144.856 59.398.856 39.258 0 43.906-.149 59.402-.856 14.332-.652 22.118-3.047 27.297-5.062a48.68 48.68 0 0027.899-27.899c2.011-5.18 4.406-12.96 5.062-27.293.707-15.504.856-20.152.856-59.402 0-39.254-.149-43.902-.856-59.402-.652-14.332-3.047-22.118-5.062-27.297zM256 331.485c-41.691 0-75.488-33.794-75.488-75.485s33.797-75.484 75.488-75.484c41.688 0 75.484 33.793 75.484 75.484S297.688 331.484 256 331.484zm78.469-136.313c-9.742 0-17.64-7.899-17.64-17.64s7.898-17.641 17.64-17.641 17.64 7.898 17.64 17.64c-.004 9.742-7.898 17.64-17.64 17.64zm0 0"/><path d="M256 0C114.637 0 0 114.637 0 256s114.637 256 256 256 256-114.637 256-256S397.363 0 256 0zm146.113 316.605c-.71 15.649-3.199 26.333-6.832 35.684a75.164 75.164 0 01-42.992 42.992c-9.348 3.633-20.035 6.117-35.68 6.832-15.675.715-20.683.887-60.605.887-39.926 0-44.93-.172-60.61-.887-15.644-.715-26.331-3.199-35.68-6.832a72.018 72.018 0 01-26.038-16.957 72.044 72.044 0 01-16.953-26.035c-3.633-9.348-6.121-20.035-6.832-35.68-.723-15.68-.891-20.687-.891-60.609s.168-44.93.887-60.605c.71-15.649 3.195-26.332 6.828-35.684a72.013 72.013 0 0116.96-26.035 72.003 72.003 0 0126.036-16.957c9.352-3.633 20.035-6.117 35.684-6.832C211.07 109.172 216.078 109 256 109s44.93.172 60.605.89c15.649.712 26.332 3.196 35.684 6.825a72.061 72.061 0 0126.04 16.96 72.027 72.027 0 0116.952 26.036c3.637 9.352 6.121 20.035 6.836 35.684.715 15.675.883 20.683.883 60.605s-.168 44.93-.887 60.605zm0 0"/></svg><svg viewBox="1.1 0 895.9 185.7" id="iwatani-1" xmlns="http://www.w3.org/2000/svg"><path d="M2.1 3.2c-.7 2.3-1 31-.8 90.3l.2 87h51l.3-86c.2-47.3 0-87.9-.3-90.3L51.9 0H3.2zM846 3c0 1.6-.1 9.5-.1 17.5s.1 15 .1 15.5c0 .7 8.6.9 25.3.8l25.2-.3.3-14.5c.2-9.6-.1-15.8-.9-18.3L894.7 0H846zm-402 8c-.5.3-.7 8.8-.4 18.8.4 17.4.3 18.3-1.7 20.3-1.7 1.7-3.2 2-8.2 1.9-3.4-.1-6.8-.1-7.4-.1-1 .1-1.3 3.2-1.3 12.1v12h8.4c5.7 0 8.7.4 9.3 1.2.4.7.8 18.2.9 39 0 44.4.2 45.2 9.4 54.9 5.3 5.5 9.7 8 18.6 10.8 4.2 1.4 24.1 1 38.4-.6l6.5-.8V164c0-15.9-.1-16.5-2-16.3-3.8.4-12.1-2.6-14.7-5.4-5.2-5.4-5.8-9.2-5.8-37.4 0-22.1.2-26 1.6-27.3 1.2-1.3 3.8-1.6 12-1.6 7.6 0 10.4-.3 10.4-1.3.3-7.7 0-22-.4-22.4-.3-.3-4.6-.5-9.7-.4C493.5 52.2 494 53 494 30c0-10.5-.3-19-.7-19-10-.4-48.7-.4-49.3 0zM331.5 47c-18.8 3.1-30.9 9.7-37.9 20.8-5.2 8.3-8.8 25.2-5.3 25.2 12.7.3 40 0 40.6-.4.5-.3 1.2-1.8 1.6-3.3.9-3.7 5.8-9.7 10.1-12.3 3-1.9 4.6-2.2 11.3-1.9 7.1.4 8.3.7 11.7 3.5 6 4.8 6.4 10.2 1.2 15.5-3.8 3.7-8.6 5.8-16.3 6.9-16.6 2.5-30.6 5.5-35.2 7.6-1.7.8-3.6 1.4-4.2 1.4-1.6 0-12.2 5.9-16.3 9.1-5 4-10.3 12.4-11.8 18.8-1.6 7-.7 18.6 2 25 2.2 5 9.4 12.7 14.5 15.4 10.7 5.6 21.9 7.4 36.2 5.7 5.3-.7 10.3-1.5 11.2-2s3.5-1.8 5.9-2.9c2.4-1.2 6.7-3.9 9.6-6.1 6.1-4.6 7.2-4.8 8.1-1.8.4 1.3 1.4 4 2.3 6l1.6 3.8h24.3c20.5 0 24.3-.2 24.3-1.4 0-.8-.4-1.7-.9-2-2-1.3-2.4-8.4-3-55.1-.6-47.9-.6-49.1-2.8-53.2-4.6-8.7-12.3-14.6-23.8-18.2-3.8-1.2-8.3-2.7-10-3.2-3.8-1.3-42.3-2-49-.9zm36.5 81.2c0 16-6.4 24.4-21.1 27.8-4.9 1.1-6.3 1-10.8-.5-3.8-1.2-5.8-2.6-7.2-4.9-2.1-3.5-2.5-9.6-.7-12.9 1.6-3.2 6.9-7.6 9.8-8.3 1.4-.4 3-1 3.5-1.4.6-.4 3-1.1 5.5-1.4 2.5-.4 5.4-1.1 6.5-1.6 3.4-1.4 10.9-3.7 12.8-3.9 1.5-.1 1.7.9 1.7 7.1zM580 47c-18.9 2.5-35 12.6-40 25-.6 1.4-1.5 3.4-2 4.5-.9 1.9-3.2 15.6-2.7 16.2.4.4 41.8.5 42.1.1.1-.2 1.1-2.1 2.1-4.3 4.4-9.7 9.9-13.4 19.8-13.5 7.9 0 12.7 1.8 15.7 6 6 8.5-2.1 17.5-18 20-15.8 2.5-30.8 5.7-33.2 7-1 .6-2.3 1-3 1-.7.1-3.1.9-5.3 2s-4.4 1.9-4.9 2c-2.2 0-13.7 9.9-16.4 14-1.7 2.6-3.6 7.7-4.6 12-1.5 6.8-1.5 8.2-.1 15.2 3.3 17.2 15 27.1 35.3 29.8 8.4 1.1 25.3 0 29.1-2 .9-.5 3.6-1.8 6.1-3s4.7-2.5 5-2.9c1.1-1.3 9.9-7.1 10.9-7.1.6 0 1.3 1.2 1.7 2.7.3 1.6 1.2 4.3 2 6l1.5 3.3H645c23.8 0 26.6-.4 24.1-3.4-2.8-3.4-3.5-12.4-4-58.6l-.6-47.5-2.9-4.5c-4.6-7.3-8.1-9.9-20.6-15.3-4-1.8-11-3.5-19-4.7-6.7-1-34.4-1-42 0zm37 80c0 16.2-5.6 24.4-19.2 28.4-7.3 2.1-9.4 2-14.8-.7-10.1-5-10.5-15.7-.7-22.8 2.2-1.6 4.8-2.9 5.8-2.9s2-.4 2.4-.9c.3-.5 3-1.3 6-1.6 3.1-.4 5.7-1.1 6-1.5.3-.5 2.3-1.1 4.5-1.5s4.2-1.1 4.6-1.6c.3-.5 1.6-.9 3-.9 2.3 0 2.4.3 2.4 6zm145.5-74.8c-9.2 1-18.4 5.1-23.6 10.4-1.8 1.9-4.1 3.4-5.1 3.4-1.5 0-1.8-.9-1.8-5.9 0-4.4-.4-6-1.6-6.5-3.1-1.2-42.9-.7-44.2.6-.9.9-1.2 16.4-1.2 63.4 0 55.8.2 62.2 1.6 62.8.9.3 12.3.6 25.5.6H736v-39.3c0-44.1.1-44.3 7.6-50.5 8.9-7.4 21.7-4.5 28.6 6.6 2.3 3.7 2.3 4.1 2.8 43.2l.5 39.5 25.3.3 25.2.2v-43.7c0-36.5-.3-45-1.6-50.8-6.3-27.9-25.4-38.5-61.9-34.3zM60.6 53.9c-.3.4.1 2.6.8 4.7.8 2.2 2.2 6.6 3.1 9.9 1 3.3 2.1 6.9 2.6 8 .4 1.1 1.7 5.4 2.9 9.5s2.5 8.6 3 10 1.8 5.9 3 10 2.5 8.4 3 9.5 1.8 5.4 3 9.5 2.5 8.6 3 10 1.8 5.9 3 10 2.5 8.4 3 9.5c.4 1.1 1.5 4.2 2.3 7 .8 2.7 2.5 8.3 3.7 12.3l2.2 7.2h48.5l1.6-4.3c.9-2.3 3.9-11.4 6.7-20.2 2.9-8.8 5.6-16.7 6-17.6.5-.9 1.2-3.3 1.5-5.3.4-2 1.1-3.9 1.6-4.2s.9-1.4.9-2.4c0-3 4.2-12 5.6-12 .6 0 2.1 3 3.3 6.7 1.2 3.8 2.6 7.7 3.1 8.8.4 1.1 4.3 12.8 8.7 26l7.9 24h48.7l.9-3c.5-1.7 1.3-3.9 1.7-5 .5-1.1 1.8-5.4 3.1-9.5 1.2-4.1 2.6-8.6 3-10 .5-1.4 1.8-5.9 3-10s2.5-8.4 3-9.5 1.2-3.6 1.6-5.5c.3-1.9 1-4.1 1.5-5 .4-.8 1.5-4.2 2.5-7.5 2.4-8.8 5.5-18.7 6.4-21 .5-1.1 1.2-3.6 1.6-5.5.3-1.9 1-4.1 1.4-5 .4-.8 1.5-4.2 2.5-7.5s2.6-8.5 3.6-11.6c1-3 1.9-6.8 2.1-8.5l.3-2.9-23.2-.3-23.2-.2-2 4c-1.1 2.3-2.3 5.5-2.7 7.3-.3 1.7-1 3.8-1.4 4.7-.4.8-1.8 4.9-3 9s-2.6 8.6-3 10c-.5 1.4-1.8 5.9-3 10s-2.5 8.6-3 10-1.2 4-1.5 5.7c-.4 1.8-1.1 3.5-1.6 3.9-1 .6-4.3-6.4-5.4-11.6-.7-3.3-2.7-10.3-4.5-16-.5-1.4-1.8-5.9-3-10s-2.6-8.2-3-9c-.4-.9-1.1-3-1.5-4.9-.4-1.8-1.3-4.4-2.1-5.9S193 57 193 56.3c0-2.7-4.3-3.3-21.9-3.3-17.9 0-21.1.3-21.1 2.2 0 .6-.6 2.4-1.4 4.1-.8 1.8-2.4 6.3-3.6 10.2-1.2 3.8-2.6 7.9-3 9-.5 1.1-1.2 3.6-1.6 5.5-.3 1.9-1 3.9-1.4 4.5-.4.5-1.1 2.8-1.5 5s-1 4.4-1.4 5c-.5.5-1.1 2.6-1.5 4.5-1.2 6.9-4 15-5.1 15-1 0-5.5-12.9-5.5-15.8 0-.7-.4-2-.9-3-.6-.9-2-5.1-3.1-9.2-1.2-4.1-2.5-8.6-3-10-.4-1.4-2.5-7.8-4.6-14.2-2.9-9.2-4.2-11.8-5.8-12.2-3.4-.9-45.4-.7-46 .3zm785.4.3c-.1.7-.1 29.4-.1 63.8l.1 62.5 23.2.3c12.8.1 24.3 0 25.4-.3l2.1-.5.1-59.7c0-32.9-.2-61.5-.5-63.6l-.5-3.7h-24.9c-19.2 0-24.9.3-24.9 1.2z"/></svg><svg viewBox="0 0 192.756 192.756" id="logo" xmlns="http://www.w3.org/2000/svg"><g fill-rule="evenodd" clip-rule="evenodd"><path fill="#fff" d="M0 0h192.756v192.756H0V0z"/><path d="M67.529 126.138v-23.257c0-1.982.595-2.444-3.304-6.344 3.767-3.766 3.304-4.756 3.304-6.606V66.277c0-3.832-3.04-5.771-5.814-5.771H44.713c-.854 0-1.366 1.454-1.366 1.454v68.889l1.189 1.4h7.929s1.453-.444 1.453-1.223v-28.015c0-1.718 2.907-1.718 2.907 0v28.015c0 .778.419 1.223 1.102 1.223h9.514c.406 0 .994-1.071.963-1.437-.191-2.241-.875-.696-.875-4.674zM56.826 89.799c0 1.85-2.907 2.246-2.907 0V72.091c0-2.114 2.907-2.246 2.907 0v17.708zm31.406-29.292H75.546c-3.523 0-5.462 1.806-5.462 5.506v21.496c0 1.233.881 2.114 2.115 2.114h6.872c1.233 0 1.585-.705 1.585-1.938V72.18c0-1.585 3.172-1.762 3.172 0v17.267c0 2.995-1.762 3.348-3.348 3.348h-4.404c-3.524 0-5.991 2.115-5.991 6.166v27.663c0 3.7 1.938 5.627 6.343 5.627h12.51c3.347 0 5.286-1.927 5.286-6.155V67.072c-.002-5.288-2.292-6.565-5.992-6.565zm-4.405 60.477c0 1.851-2.907 2.247-2.907 0v-17.707c0-2.114 2.907-2.246 2.907 0v17.707zm31.89-60.477H98.803c-.881 0-1.41.45-1.41 1.277v68.011c0 1.938.705 2.455 1.939 2.455h6.693c1.41 0 1.41-1.223 1.41-2.28v-17.09c0-2.467 1.586-3.524 3.525-3.524h4.932c4.229 0 5.461-3.7 5.461-6.696V66.719c0-4.228-2.464-6.212-5.636-6.212zm-4.756 37.045c0 1.85-2.908 2.246-2.908 0V72.445c0-2.114 2.908-2.247 2.908 0v25.107zm-76.99-37.045H18.636c-.809 0-2.379 1.806-2.379 1.806v68.362l1.499 1.575h16.605c2.643 0 5.903-2.158 5.903-6.114V65.902c0-4.316-2.697-5.395-6.293-5.395zm-4.235 59.42c0 1.851-2.907 2.247-2.907 0V72.092c0-2.114 2.907-2.246 2.907 0v47.835zm145.885 6.211v-23.257c0-1.982.596-2.444-3.303-6.344 3.766-3.766 3.303-4.756 3.303-6.606V66.277c0-3.832-3.039-5.771-5.814-5.771h-17.002c-.854 0-1.365 1.454-1.365 1.454v68.889l1.189 1.4h7.928s1.455-.444 1.455-1.223v-28.015c0-1.718 2.906-1.718 2.906 0v28.015c0 .778.42 1.223 1.104 1.223h9.514c.406 0 .994-1.071.961-1.437-.19-2.241-.876-.696-.876-4.674zm-10.703-36.339c0 1.85-2.906 2.246-2.906 0V72.091c0-2.114 2.906-2.246 2.906 0v17.708zm-26.297 10.571h10.043V66.894c0-4.405-2.643-6.388-6.166-6.388H129.81c-3.17 0-5.635 2.863-5.635 5.858v60.608c0 3.35 1.936 5.276 6.518 5.276h13.215c4.229 0 4.756-3.513 4.756-6.861v-21.494H137.74v17.266c0 1.585-2.643 1.585-2.643 0v-17.618c.001-1.761 1.587-3.171 3.524-3.171zm-3.523-28.279c0-2.114 2.906-2.246 2.906 0v17.708c0 1.85-2.906 2.246-2.906 0V72.091z" fill="#cc2229"/></g></svg><svg viewBox="0 0 512 512" id="reddit" xmlns="http://www.w3.org/2000/svg"><path d="M309.605 343.348c-11.468 11.468-36.042 15.562-53.554 15.562-17.563 0-42.086-4.094-53.555-15.562a6.887 6.887 0 00-9.777 0 6.887 6.887 0 000 9.777c18.176 18.176 53.094 19.61 63.332 19.61s45.105-1.434 63.336-19.61a6.987 6.987 0 000-9.777 6.892 6.892 0 00-9.782 0zm0 0M224 282.676C224 267.98 212.02 256 197.324 256c-14.691 0-26.676 11.98-26.676 26.676 0 14.691 11.985 26.676 26.676 26.676 14.696 0 26.676-11.98 26.676-26.676zm0 0"/><path d="M256 0C114.637 0 0 114.637 0 256s114.637 256 256 256 256-114.637 256-256S397.363 0 256 0zm148.531 290.148c.563 3.688.871 7.426.871 11.215 0 57.446-66.867 103.989-149.351 103.989s-149.352-46.543-149.352-103.989c0-3.84.309-7.629.871-11.316-13.004-5.836-22.066-18.89-22.066-34.047 0-20.582 16.691-37.324 37.324-37.324 10.035 0 19.098 3.941 25.805 10.394 25.906-18.687 61.75-30.62 101.633-31.644 0-.512 18.636-89.293 18.636-89.293a6.57 6.57 0 012.868-4.196c1.484-.972 3.277-1.28 5.02-.921l62.054 13.207c4.351-8.805 13.308-14.899 23.804-14.899 14.747 0 26.676 11.93 26.676 26.676s-11.93 26.676-26.676 26.676c-14.285 0-25.855-11.266-26.52-25.395l-55.554-11.828-16.996 80.027c39.168 1.38 74.344 13.258 99.84 31.692 6.707-6.5 15.82-10.496 25.906-10.496 20.637 0 37.324 16.691 37.324 37.324 0 15.258-9.164 28.312-22.117 34.148zm0 0"/><path d="M314.676 256C299.98 256 288 267.98 288 282.676c0 14.691 11.98 26.676 26.676 26.676 14.691 0 26.676-11.985 26.676-26.676 0-14.696-11.98-26.676-26.676-26.676zm0 0"/></svg><svg viewBox="0 0 64 64" id="speed" xmlns="http://www.w3.org/2000/svg"><path d="M45 43c3.86 0 7-3.14 7-7s-3.14-7-7-7-7 3.14-7 7 3.14 7 7 7zm0-12c2.757 0 5 2.243 5 5s-2.243 5-5 5-5-2.243-5-5 2.243-5 5-5z"/><path d="M45 39c1.654 0 3-1.346 3-3s-1.346-3-3-3-3 1.346-3 3 1.346 3 3 3zm0-4c.551 0 1 .449 1 1s-.449 1-1 1-1-.449-1-1 .449-1 1-1z"/><path d="M51.117 52.1l.687-1.1H63.22l-1.309-6.542-6.026-5.021A24.73 24.73 0 0056 37.19c0-.064-.006-.126-.007-.19H56V4c0-1.654-1.346-3-3-3H4C2.346 1 1 2.346 1 4v42c0 1.654 1.346 3 3 3h23.18l-.4 2h11.416l.687 1.1-.388.971a6.008 6.008 0 001.97 7.028l1.893 1.42 1.915-3.829A6.197 6.197 0 0146 62v1h2.48l1.664-2.08a8.258 8.258 0 001.217-8.211zM40.554 51l-1.097-1.755A22.673 22.673 0 0138.238 47h13.523a22.786 22.786 0 01-1.219 2.245L49.446 51zm-2.13-24h13.152A22.653 22.653 0 0154 37.19c0 2.68-.472 5.32-1.383 7.81H37.383A22.718 22.718 0 0136 37.19c0-3.566.84-7.037 2.424-10.19zm1.133-2c.09-.141.17-.288.263-.428l2.902-4.354a2.735 2.735 0 014.555.001l2.902 4.354c.093.14.173.286.263.428H39.557zm20.532 20.542L60.78 49h-7.788a24.701 24.701 0 002.568-7.232zM4 3h49c.551 0 1 .449 1 1v9H3V4c0-.551.449-1 1-1zm23.58 44H4c-.551 0-1-.449-1-1V15h51v12.479a24.8 24.8 0 00-2.156-4.017l-2.902-4.354C48.061 17.789 46.588 17 45 17s-3.061.789-3.941 2.109l-2.902 4.354A24.662 24.662 0 0034 37.19c0 .753.047 1.501.115 2.246l-6.026 5.021zm2.331-1.458l4.529-3.774A24.701 24.701 0 0037.008 49H29.22zm18.672 14.129l-.708.884a8.18 8.18 0 00-2.289-4.384l-1.859-1.859-2.084 4.169a4.007 4.007 0 01-1.29-4.668l.324-.813h8.646l.181.453a6.256 6.256 0 01-.921 6.218z"/><path d="M11 5H5v6h6zM9 9H7V7h2zM19 5h-6v6h6zm-2 4h-2V7h2zM27 5h-6v6h6zm-2 4h-2V7h2zM29 17h-6v20h-2V25h-6v12h-2v-8H7v8H5v2h26v-2h-2zm-4 2h2v18h-2zm-8 8h2v10h-2zm-8 4h2v6H9zM5 17h2v2H5zM9 17h10v2H9zM5 21h2v2H5z"/><path d="M9 21h10v2H9z"/></svg><svg viewBox="0 0 240.835 240.835" id="up" xmlns="http://www.w3.org/2000/svg"><path d="M129.007 57.819c-4.68-4.68-12.499-4.68-17.191 0L3.555 165.803c-4.74 4.74-4.74 12.427 0 17.155 4.74 4.74 12.439 4.74 17.179 0l99.683-99.406 99.671 99.418c4.752 4.74 12.439 4.74 17.191 0 4.74-4.74 4.74-12.427 0-17.155L129.007 57.819z"/></svg><svg viewBox="0 0 201.506 201.506" id="web" xmlns="http://www.w3.org/2000/svg"><path d="M100.753 0C45.198 0 0 45.198 0 100.753s45.198 100.753 100.753 100.753 100.753-45.198 100.753-100.753S156.308 0 100.753 0zm0 194.56c-51.726 0-93.807-42.081-93.807-93.807S49.027 6.946 100.753 6.946s93.807 42.081 93.807 93.807-42.081 93.807-93.807 93.807z"/><path d="M201.172 93.691c-1.044-15.048-5.326-29.314-12.725-42.404l-.98-1.734H74.324c-14.601 0-26.477 11.878-26.477 26.479V97.34h153.58l-.255-3.649zM54.673 90.513V76.032c0-10.837 8.815-19.652 19.651-19.652h109.138a92.52 92.52 0 0110.578 34.133H54.673z"/><path d="M73.446 63.206c-6.588 0-11.947 5.361-11.947 11.947 0 6.586 5.359 11.947 11.947 11.947 6.588 0 11.947-5.361 11.947-11.947 0-6.586-5.359-11.947-11.947-11.947zm0 17.067a5.126 5.126 0 01-5.12-5.12 5.126 5.126 0 015.12-5.12 5.126 5.126 0 015.12 5.12 5.126 5.126 0 01-5.12 5.12zM100.753 63.206c-6.588 0-11.947 5.361-11.947 11.947 0 6.586 5.359 11.947 11.947 11.947 6.588 0 11.947-5.361 11.947-11.947 0-6.586-5.359-11.947-11.947-11.947zm0 17.067a5.126 5.126 0 01-5.12-5.12c0-2.823 2.297-5.12 5.12-5.12s5.12 2.297 5.12 5.12a5.126 5.126 0 01-5.12 5.12zM128.06 63.148c-6.62 0-12.005 5.385-12.005 12.005 0 6.62 5.385 12.005 12.005 12.005 6.62 0 12.005-5.385 12.005-12.005-.001-6.62-5.385-12.005-12.005-12.005zm0 17.067c-2.79 0-5.062-2.27-5.062-5.062s2.272-5.062 5.062-5.062c2.79 0 5.062 2.27 5.062 5.062s-2.272 5.062-5.062 5.062zM201.173 93.689l-.22-3.176H47.846v95.928l1.674.992a100.574 100.574 0 0051.232 14.013c55.523 0 100.693-45.172 100.693-100.693.001-2.132-.086-4.378-.272-7.064zM100.753 194.62a93.767 93.767 0 01-46.08-12.092V97.34h139.872c.049 1.21.075 2.33.075 3.413 0 51.758-42.109 93.867-93.867 93.867z"/><path d="M99.046 110.993c-13.175 0-23.893 10.718-23.893 23.893s10.718 23.893 23.893 23.893 23.893-10.718 23.893-23.893-10.717-23.893-23.893-23.893zm0 40.96c-9.411 0-17.067-7.656-17.067-17.067 0-9.411 7.656-17.067 17.067-17.067s17.067 7.656 17.067 17.067c0 9.411-7.656 17.067-17.067 17.067z"/><path d="M139.006 170.02l-22.187-22.187a3.412 3.412 0 10-4.826 4.826l22.187 22.187c.666.667 1.539 1 2.413 1a3.412 3.412 0 002.413-5.826z"/></svg><svg viewBox="0 0 64 64" id="web-site" xmlns="http://www.w3.org/2000/svg"><path d="M61 44h-3V3a1 1 0 00-1-1H3a1 1 0 00-1 1v48a1 1 0 001 1h23.18A3.01 3.01 0 0029 54h1v7a1 1 0 001 1h30a1 1 0 001-1V45a1 1 0 00-1-1zM4 4h52v4H4zm22 35v11H4V10h52v34h-2v-5a3.009 3.009 0 00-3-3H29a3.009 3.009 0 00-3 3zm26 0v1H28v-1a1 1 0 011-1h22a1 1 0 011 1zm-22 6v7h-1a1 1 0 01-1-1v-9h24v2H31a1 1 0 00-1 1zm4.86 1A4.017 4.017 0 0132 48.86V46zM32 60v-2.86A4.017 4.017 0 0134.86 60zm28 0h-2.86A4.017 4.017 0 0160 57.14zm0-4.91A5.992 5.992 0 0055.09 60H36.91A5.992 5.992 0 0032 55.09v-4.18A5.992 5.992 0 0036.91 46h18.18A5.992 5.992 0 0060 50.91zm0-6.23A4.017 4.017 0 0157.14 46H60z"/><path d="M46 47a6 6 0 106 6 6.006 6.006 0 00-6-6zm0 10a4 4 0 114-4 4 4 0 01-4 4zM27 35a3 3 0 000-6H13a3 3 0 103 3 2.966 2.966 0 00-.184-1h8.368A2.966 2.966 0 0024 32a3 3 0 003 3zm1-3a1 1 0 11-1-1 1 1 0 011 1zm-14 0a1 1 0 11-1-1 1 1 0 011 1zM31.77 15.36A.992.992 0 0031 15H12v-2a1 1 0 00-1-1H6v2h4v13a1 1 0 001 1h18a1 1 0 00.98-.82l2-11a.977.977 0 00-.21-.82zM28.17 26H12v-9h17.8zM6 5h2v2H6zM10 5h2v2h-2zM14 5h2v2h-2zM43 29a7 7 0 10-7-7 7.008 7.008 0 007 7zm0-12a5 5 0 11-5 5 5.006 5.006 0 015-5z"/><path d="M42 25a1 1 0 00.707-.293l4-4-1.414-1.414L42 22.586l-1.293-1.293-1.414 1.414 2 2A1 1 0 0042 25zM36 31h4v2h-4zM42 31h8v2h-8z"/></svg><svg viewBox="0 0 64 64" id="website" xmlns="http://www.w3.org/2000/svg"><path d="M.019 60.996a1 1 0 001 1h39.992a1 1 0 001-1v-3.004h3.004a1 1 0 001-1v-2.998h3.016a1 1 0 001-1V21.976c5.964-.372 11.218-3.952 13.872-9.537a1.002 1.002 0 000-.859C61.095 5.674 55.385 2.005 49 2.005c-6.173 0-11.706 3.436-14.604 8.999H11.021c-1.654 0-3 1.346-3 3v.998h-.999l-.009.002-.009-.002c-1.654 0-3 1.346-3 3v1.004h-.985l-.009.002-.009-.002c-1.654 0-3 1.346-3 3v2c0 .031.015.057.018.087v36.903zm39.992-1H2.019V25.005h2.004v31.987a1 1 0 001 1h34.988zm4.004-4.004H6.022V21.001h2.016v31.993a1 1 0 001 1h34.977zm-33.977-3.998V17.003h27.216c2.833 2.938 6.633 4.732 10.776 4.975v30.017H10.038zm38.961-47.99c5.45 0 10.345 3.055 12.885 8.005-2.539 4.95-7.435 8.004-12.885 8.004-4.083 0-7.854-1.715-10.558-4.656-.023-.027-.043-.056-.07-.08a15.237 15.237 0 01-2.257-3.268c2.54-4.95 7.435-8.005 12.885-8.005zm-37.978 8.999h1.02c-.552 0-.994.447-.994 1s.452 1 1.005 1a1 1 0 100-2h2.989c-.552 0-.994.447-.994 1s.452 1 1.005 1a1 1 0 100-2h2.989c-.552 0-.994.447-.994 1s.452 1 1.005 1a1 1 0 100-2H34.39c.364.701.771 1.369 1.216 2H10.021v-1a1 1 0 011-1zm-4.016 3.998l.009-.002.009.002h1.016v2H6.005v-1a1 1 0 011-1zm-4.004 4.004l.009-.002.009.002h1.004v2H2.001v-1a1 1 0 011-1z"/><path d="M43.003 22.004H15.011a1 1 0 00-1 1v11.999a1 1 0 001 1h27.992a1 1 0 001-1V23.004a1 1 0 00-1-1zm-16.996 9.6l1.702 2.129-.201.27h-3.42zm8-2.935l4.001 5.334h-8.002zm7.996 5.334h-1.497l-5.699-7.6c-.029-.04-.072-.062-.106-.095-.034-.034-.055-.076-.094-.105-.016-.012-.034-.014-.051-.024a.956.956 0 00-.194-.092c-.055-.021-.105-.046-.162-.057-.067-.013-.132-.01-.2-.01-.062.001-.121-.002-.181.01-.062.012-.116.037-.175.061a.961.961 0 00-.186.089c-.017.011-.036.013-.052.024-.04.029-.061.072-.095.105-.033.034-.076.056-.105.095l-4.258 5.677-2.161-2.702c-.024-.03-.058-.044-.085-.07-.026-.027-.041-.062-.071-.086-.024-.02-.056-.024-.081-.042a1.072 1.072 0 00-.356-.147 1.014 1.014 0 00-.19-.015.93.93 0 00-.183.015.95.95 0 00-.188.059.94.94 0 00-.17.087c-.026.018-.058.022-.083.043-.03.024-.045.06-.072.086-.026.026-.06.041-.084.07l-3.7 4.625h-5.515v-9.999h25.992v9.998zM15.011 39.994h14.996a1 1 0 100-2H15.011a1 1 0 100 2zM15.011 43.994h3.995a1 1 0 100-2h-3.995a1 1 0 100 2zM43.003 41.994H24.007a1 1 0 100 2h18.996a1 1 0 100-2zM37.007 45.994H15.011a1 1 0 100 2h21.996a1 1 0 100-2zM43.003 45.994h-1.996a1 1 0 100 2h1.996a1 1 0 100-2zM43.003 37.994h-8.996a1 1 0 100 2h8.996a1 1 0 100-2z"/><path d="M19.037 28.004a1 1 0 100-2h-.011c-.552 0-.994.447-.994 1s.452 1 1.005 1zM49.001 18.011c3.309 0 6-2.692 6-6.002s-2.691-6.003-6-6.003-6 2.693-6 6.003 2.691 6.002 6 6.002zm0-10.005c2.206 0 4 1.796 4 4.003s-1.794 4.002-4 4.002-4-1.795-4-4.002 1.794-4.003 4-4.003z"/></svg></svg>