<svg height="512" viewBox="0 0 64 64" width="512" xmlns="http://www.w3.org/2000/svg"><g id="website-cart-shopping-money-payment"><path d="m61 44h-3v-41a1 1 0 0 0 -1-1h-54a1 1 0 0 0 -1 1v48a1 1 0 0 0 1 1h23.18a3.01 3.01 0 0 0 2.82 2h1v7a1 1 0 0 0 1 1h30a1 1 0 0 0 1-1v-16a1 1 0 0 0 -1-1zm-57-40h52v4h-52zm22 35v11h-22v-40h52v34h-2v-5a3.009 3.009 0 0 0 -3-3h-22a3.009 3.009 0 0 0 -3 3zm26 0v1h-24v-1a1 1 0 0 1 1-1h22a1 1 0 0 1 1 1zm-22 6v7h-1a1 1 0 0 1 -1-1v-9h24v2h-21a1 1 0 0 0 -1 1zm4.86 1a4.017 4.017 0 0 1 -2.86 2.86v-2.86zm-2.86 14v-2.86a4.017 4.017 0 0 1 2.86 2.86zm28 0h-2.86a4.017 4.017 0 0 1 2.86-2.86zm0-4.91a5.992 5.992 0 0 0 -4.91 4.91h-18.18a5.992 5.992 0 0 0 -4.91-4.91v-4.18a5.992 5.992 0 0 0 4.91-4.91h18.18a5.992 5.992 0 0 0 4.91 4.91zm0-6.23a4.017 4.017 0 0 1 -2.86-2.86h2.86z"/><path d="m46 47a6 6 0 1 0 6 6 6.006 6.006 0 0 0 -6-6zm0 10a4 4 0 1 1 4-4 4 4 0 0 1 -4 4z"/><path d="m27 35a3 3 0 0 0 0-6h-14a3 3 0 1 0 3 3 2.966 2.966 0 0 0 -.184-1h8.368a2.966 2.966 0 0 0 -.184 1 3 3 0 0 0 3 3zm1-3a1 1 0 1 1 -1-1 1 1 0 0 1 1 1zm-14 0a1 1 0 1 1 -1-1 1 1 0 0 1 1 1z"/><path d="m31.77 15.36a.992.992 0 0 0 -.77-.36h-19v-2a1 1 0 0 0 -1-1h-5v2h4v13a1 1 0 0 0 1 1h18a1 1 0 0 0 .98-.82l2-11a.977.977 0 0 0 -.21-.82zm-3.6 10.64h-16.17v-9h17.8z"/><path d="m6 5h2v2h-2z"/><path d="m10 5h2v2h-2z"/><path d="m14 5h2v2h-2z"/><path d="m43 29a7 7 0 1 0 -7-7 7.008 7.008 0 0 0 7 7zm0-12a5 5 0 1 1 -5 5 5.006 5.006 0 0 1 5-5z"/><path d="m42 25a1 1 0 0 0 .707-.293l4-4-1.414-1.414-3.293 3.293-1.293-1.293-1.414 1.414 2 2a1 1 0 0 0 .707.293z"/><path d="m36 31h4v2h-4z"/><path d="m42 31h8v2h-8z"/></g></svg>