<svg id="icons" enable-background="new 0 0 64 64" height="512" viewBox="0 0 64 64" width="512" xmlns="http://www.w3.org/2000/svg"><path d="m.019 60.996c0 .553.447 1 1 1h39.992c.553 0 1-.447 1-1v-3.004h3.004c.553 0 1-.447 1-1v-2.998h3.016c.553 0 1-.447 1-1v-31.018c5.964-.372 11.218-3.952 13.872-9.537.129-.272.129-.587 0-.859-2.808-5.906-8.518-9.575-14.903-9.575-6.173 0-11.706 3.436-14.604 8.999h-23.375c-1.654 0-3 1.346-3 3v.998h-.999c-.003 0-.006.002-.009.002s-.006-.002-.009-.002c-1.654 0-3 1.346-3 3v1.004h-.985c-.003 0-.006.002-.009.002s-.006-.002-.009-.002c-1.654 0-3 1.346-3 3v2c0 .031.015.057.018.087v36.903zm39.992-1h-37.992v-34.991h2.004v31.987c0 .553.447 1 1 1h34.988zm4.004-4.004h-37.993v-34.991h2.016v31.993c0 .553.447 1 1 1h34.977zm-33.977-3.998v-34.991h27.216c2.833 2.938 6.633 4.732 10.776 4.975v30.017h-37.992zm38.961-47.99c5.45 0 10.345 3.055 12.885 8.005-2.539 4.95-7.435 8.004-12.885 8.004-4.083 0-7.854-1.715-10.558-4.656-.023-.027-.043-.056-.07-.08-.874-.966-1.637-2.06-2.257-3.268 2.54-4.95 7.435-8.005 12.885-8.005zm-37.978 8.999h1.02c-.552 0-.994.447-.994 1s.452 1 1.005 1c.552 0 1-.447 1-1s-.448-1-1-1h2.989c-.552 0-.994.447-.994 1s.452 1 1.005 1c.552 0 1-.447 1-1s-.448-1-1-1h2.989c-.552 0-.994.447-.994 1s.452 1 1.005 1c.552 0 1-.447 1-1s-.448-1-1-1h16.338c.364.701.771 1.369 1.216 2h-17.555-3-3-2.03v-1c0-.552.448-1 1-1zm-4.016 3.998c.003 0 .006-.002.009-.002s.006.002.009.002h1.016v2h-2.034v-1c0-.552.448-1 1-1zm-4.004 4.004c.003 0 .006-.002.009-.002s.006.002.009.002h1.004v2h-2.022v-1c0-.552.448-1 1-1z"/><path d="m43.003 22.004h-27.992c-.553 0-1 .447-1 1v11.999c0 .553.447 1 1 1h27.992c.553 0 1-.447 1-1v-11.999c0-.553-.447-1-1-1zm-16.996 9.6 1.702 2.129-.201.27h-3.42zm8-2.935 4.001 5.334h-8.002zm7.996 5.334h-1.497l-5.699-7.6c-.029-.04-.072-.062-.106-.095-.034-.034-.055-.076-.094-.105-.016-.012-.034-.014-.051-.024-.062-.041-.126-.066-.194-.092-.055-.021-.105-.046-.162-.057-.067-.013-.132-.01-.2-.01-.062.001-.121-.002-.181.01-.062.012-.116.037-.175.061-.064.025-.127.05-.186.089-.017.011-.036.013-.052.024-.04.029-.061.072-.095.105-.033.034-.076.056-.105.095l-4.258 5.677-2.161-2.702c-.024-.03-.058-.044-.085-.07-.026-.027-.041-.062-.071-.086-.024-.02-.056-.024-.081-.042-.057-.037-.113-.064-.175-.09-.061-.023-.118-.044-.181-.057-.064-.012-.126-.015-.19-.015-.063 0-.122.003-.183.015-.064.012-.125.033-.188.059-.06.023-.115.052-.17.087-.026.018-.058.022-.083.043-.03.024-.045.06-.072.086-.026.026-.06.041-.084.07l-3.7 4.625h-5.515v-9.999h25.992v9.998z"/><path d="m15.011 39.994h14.996c.553 0 1-.447 1-1s-.447-1-1-1h-14.996c-.553 0-1 .447-1 1s.447 1 1 1z"/><path d="m15.011 43.994h3.995c.553 0 1-.447 1-1s-.447-1-1-1h-3.995c-.553 0-1 .447-1 1s.447 1 1 1z"/><path d="m43.003 41.994h-18.996c-.553 0-1 .447-1 1s.447 1 1 1h18.996c.553 0 1-.447 1-1s-.447-1-1-1z"/><path d="m37.007 45.994h-21.996c-.553 0-1 .447-1 1s.447 1 1 1h21.996c.553 0 1-.447 1-1s-.447-1-1-1z"/><path d="m43.003 45.994h-1.996c-.553 0-1 .447-1 1s.447 1 1 1h1.996c.553 0 1-.447 1-1s-.447-1-1-1z"/><path d="m43.003 37.994h-8.996c-.553 0-1 .447-1 1s.447 1 1 1h8.996c.553 0 1-.447 1-1s-.447-1-1-1z"/><path d="m19.037 28.004c.552 0 1-.447 1-1s-.448-1-1-1h-.011c-.552 0-.994.447-.994 1s.452 1 1.005 1z"/><path d="m49.001 18.011c3.309 0 6-2.692 6-6.002s-2.691-6.003-6-6.003-6 2.693-6 6.003 2.691 6.002 6 6.002zm0-10.005c2.206 0 4 1.796 4 4.003s-1.794 4.002-4 4.002-4-1.795-4-4.002 1.794-4.003 4-4.003z"/></svg>